<svg width="45" height="45" viewBox="0 0 45 45" fill="none" xmlns="http://www.w3.org/2000/svg">
<g clip-path="url(#clip0_8756_114)">
<path d="M44.0625 43.125H0.937529C0.420029 43.125 0 43.5449 0 44.0624C0 44.5799 0.420029 45 0.937529 45H44.0626C44.5801 45 45.0001 44.5799 45.0001 44.0624C45 43.5449 44.58 43.125 44.0625 43.125Z" fill="white"/>
<path d="M8.4375 31.875H2.8125C2.295 31.875 1.87497 32.295 1.87497 32.8125V44.0625C1.87497 44.5799 2.295 45 2.8125 45H8.4375C8.955 45 9.37503 44.5799 9.37503 44.0624V32.8124C9.37503 32.2949 8.955 31.875 8.4375 31.875ZM7.49997 43.125H3.75003V33.75H7.50006V43.125H7.49997Z" fill="white"/>
<path d="M19.6875 22.5H14.0625C13.545 22.5 13.125 22.92 13.125 23.4375V44.0626C13.125 44.5801 13.545 45.0001 14.0625 45.0001H19.6875C20.205 45.0001 20.625 44.5801 20.625 44.0626V23.4375C20.625 22.92 20.205 22.5 19.6875 22.5ZM18.75 43.125H14.9999V24.375H18.75V43.125Z" fill="white"/>
<path d="M30.9375 26.25H25.3125C24.795 26.25 24.375 26.67 24.375 27.1875V44.0625C24.375 44.58 24.795 45.0001 25.3125 45.0001H30.9375C31.455 45.0001 31.875 44.58 31.875 44.0625V27.1875C31.875 26.6699 31.455 26.25 30.9375 26.25ZM30 43.125H26.2499V28.125H30V43.125Z" fill="white"/>
<path d="M42.1875 15H36.5625C36.045 15 35.625 15.42 35.625 15.9375V44.0625C35.625 44.58 36.045 45.0001 36.5625 45.0001H42.1875C42.705 45.0001 43.125 44.58 43.125 44.0625V15.9375C43.125 15.4199 42.705 15 42.1875 15ZM41.25 43.125H37.4999V16.875H41.25V43.125Z" fill="white"/>
<path d="M5.625 16.875C3.55684 16.875 1.87497 18.5569 1.87497 20.625C1.87497 22.6932 3.55684 24.3751 5.625 24.3751C7.69315 24.3751 9.37503 22.6932 9.37503 20.625C9.37503 18.5569 7.69315 16.875 5.625 16.875ZM5.625 22.5C4.59 22.5 3.75003 21.6581 3.75003 20.625C3.75003 19.5919 4.59 18.7501 5.625 18.7501C6.66 18.7501 7.49997 19.592 7.49997 20.625C7.49997 21.6581 6.66 22.5 5.625 22.5Z" fill="white"/>
<path d="M16.875 7.5C14.8068 7.5 13.125 9.18187 13.125 11.25C13.125 13.3182 14.8068 15.0001 16.875 15.0001C18.9432 15.0001 20.625 13.3182 20.625 11.25C20.625 9.18187 18.9432 7.5 16.875 7.5ZM16.875 13.125C15.84 13.125 15 12.2831 15 11.25C15 10.2169 15.84 9.37506 16.875 9.37506C17.91 9.37506 18.75 10.217 18.75 11.25C18.75 12.2832 17.91 13.125 16.875 13.125Z" fill="white"/>
<path d="M28.125 11.25C26.0568 11.25 24.375 12.9319 24.375 15C24.375 17.0682 26.0568 18.7501 28.125 18.7501C30.1932 18.7501 31.875 17.0682 31.875 15C31.875 12.9319 30.1932 11.25 28.125 11.25ZM28.125 16.875C27.09 16.875 26.25 16.0331 26.25 15C26.25 13.9669 27.09 13.1251 28.125 13.1251C29.16 13.1251 30 13.967 30 15C30 16.0331 29.16 16.875 28.125 16.875Z" fill="white"/>
<path d="M39.375 0C37.3068 0 35.625 1.68187 35.625 3.75003C35.625 5.81818 37.3068 7.50006 39.375 7.50006C41.4432 7.50006 43.125 5.81818 43.125 3.75003C43.125 1.68187 41.4432 0 39.375 0ZM39.375 5.625C38.34 5.625 37.5 4.7831 37.5 3.75003C37.5 2.71688 38.34 1.87506 39.375 1.87506C40.41 1.87506 41.25 2.71696 41.25 3.75003C41.25 4.7831 40.41 5.625 39.375 5.625Z" fill="white"/>
<path d="M38.0513 5.07354C37.6857 4.70791 37.0913 4.70791 36.7256 5.07354L29.4507 12.3485C29.085 12.7141 29.085 13.3085 29.4507 13.6742C29.6345 13.856 29.8744 13.9479 30.1144 13.9479C30.3525 13.9479 30.5925 13.8579 30.7763 13.6742L38.0513 6.39919C38.4169 6.03356 38.4169 5.43916 38.0513 5.07354Z" fill="white"/>
<path d="M25.8581 12.8362L19.8356 11.1188C19.3312 10.9725 18.8193 11.265 18.6787 11.7638C18.5362 12.2626 18.8249 12.7801 19.3218 12.9226L25.3443 14.64C25.4305 14.6644 25.5168 14.6756 25.6012 14.6756C26.01 14.6756 26.3849 14.4075 26.5031 13.995C26.6456 13.4981 26.3569 12.9787 25.8581 12.8362Z" fill="white"/>
<path d="M15.4125 12.4181C15.09 12.0131 14.5013 11.9474 14.0963 12.268L7.02748 17.9043C6.62248 18.2287 6.55498 18.8174 6.87938 19.2224C7.06501 19.4548 7.33879 19.5749 7.61248 19.5749C7.81682 19.5749 8.0231 19.5074 8.19563 19.3724L15.2644 13.7362C15.6694 13.4117 15.7369 12.8231 15.4125 12.4181Z" fill="white"/>
</g>
<defs>
<clipPath id="clip0_8756_114">
<rect width="45" height="45" fill="white"/>
</clipPath>
</defs>
</svg>
