<svg width="25" height="19" viewBox="0 0 25 19" fill="none" xmlns="http://www.w3.org/2000/svg">
<path d="M24.6595 8.67797L17.22 1.23838C16.766 0.784472 16.0299 0.784472 15.576 1.23838C15.122 1.69238 15.122 2.42834 15.576 2.88234L21.0312 8.33752H1.16244C0.520492 8.33752 0 8.85801 0 9.49995C0 10.1418 0.520492 10.6624 1.16244 10.6624H21.0312L15.5762 16.1176C15.1222 16.5716 15.1222 17.3075 15.5762 17.7615C15.8031 17.9883 16.1007 18.102 16.3982 18.102C16.6956 18.102 16.9931 17.9883 17.2201 17.7615L24.6595 10.3219C25.1135 9.86793 25.1135 9.13197 24.6595 8.67797Z" fill="#C0C0C0"/>
</svg>
