<svg width="25" height="25" viewBox="0 0 25 25" fill="none" xmlns="http://www.w3.org/2000/svg">
<g clip-path="url(#clip0_8756_211)">
<path d="M0.340459 13.322L7.78005 20.7616C8.23396 21.2155 8.9701 21.2155 9.42401 20.7616C9.87801 20.3076 9.87801 19.5717 9.42401 19.1177L3.96884 13.6625L23.8376 13.6625C24.4795 13.6625 25 13.142 25 12.5C25 11.8582 24.4795 11.3376 23.8376 11.3376L3.96884 11.3376L9.42382 5.88244C9.87783 5.42844 9.87783 4.69248 9.42382 4.23848C9.19692 4.01166 8.89933 3.89802 8.60184 3.89802C8.30435 3.89802 8.00686 4.01166 7.77986 4.23848L0.340459 11.6781C-0.113541 12.1321 -0.113541 12.868 0.340459 13.322Z" fill="#C0C0C0"/>
</g>
<defs>
<clipPath id="clip0_8756_211">
<rect width="25" height="25" fill="white" transform="translate(25 25) rotate(180)"/>
</clipPath>
</defs>
</svg>
