<svg width="36" height="36" viewBox="0 0 36 36" fill="none" xmlns="http://www.w3.org/2000/svg">
<g clip-path="url(#clip0_8756_160)">
<path d="M17.9687 27.9303C17.7915 28.1066 17.7652 28.3112 17.7652 28.4178C17.7652 28.5241 17.7915 28.729 17.9687 28.9053L22.687 33.6006C23.2369 34.1474 23.2388 35.0365 22.692 35.5864C22.4176 35.8618 22.0573 36 21.6966 36C21.3385 36 20.98 35.8638 20.7062 35.5913L15.9879 30.8958C15.3229 30.2344 14.9568 29.3544 14.9568 28.4178C14.9568 27.4812 15.3229 26.6012 15.9879 25.9398L20.7062 21.2443C21.2558 20.6974 22.1449 20.6996 22.692 21.2492C23.2388 21.7991 23.2369 22.6879 22.687 23.235L17.9687 27.9303ZM33.0222 25.8852L28.3035 21.1899C27.7539 20.6428 26.8649 20.645 26.3177 21.1945C25.7709 21.7444 25.7731 22.6335 26.3227 23.1803L31.041 27.8756C31.2182 28.0519 31.2446 28.2568 31.2446 28.3631C31.2446 28.4694 31.2182 28.6743 31.041 28.8506L26.3227 33.5459C25.7731 34.093 25.7709 34.9821 26.3177 35.5317C26.5921 35.8075 26.9528 35.9453 27.3131 35.9453C27.6713 35.9453 28.0297 35.8091 28.3035 35.5367L33.0222 30.8411C33.6868 30.1797 34.0529 29.2997 34.0529 28.3631C34.0529 27.4265 33.6868 26.5468 33.0222 25.8852ZM27.6564 5.61649V16.5685C27.6564 17.3441 28.2849 17.9728 29.0605 17.9728C29.8358 17.9728 30.4645 17.3441 30.4645 16.5685V5.61649C30.4645 2.51944 27.9451 0 24.8481 0H12.0973C10.6425 0 9.22083 0.592438 8.1969 1.6257L3.56012 6.30368C2.534 7.33887 1.96875 8.71188 1.96875 10.1698V30.3289C1.96875 33.4259 4.48819 35.9453 7.58524 35.9453H14.1847C14.9601 35.9453 15.5888 35.3169 15.5888 34.5413C15.5888 33.7659 14.9601 33.1372 14.1847 33.1372H7.58524C6.03671 33.1372 4.77686 31.8774 4.77686 30.3289V11.8647H8.91925C11.629 11.8647 13.8334 9.66028 13.8334 6.9505C13.8334 6.17487 13.205 5.54617 12.4294 5.54617C11.654 5.54617 11.0253 6.17487 11.0253 6.9505C11.0253 8.11176 10.0805 9.05658 8.91925 9.05658H5.01801C5.14792 8.77176 5.32809 8.50919 5.55469 8.28067L10.1915 3.60269C10.6916 3.09787 11.3865 2.80811 12.0973 2.80811H24.8481C26.3966 2.80811 27.6564 4.06796 27.6564 5.61649Z" fill="white"/>
</g>
<defs>
<clipPath id="clip0_8756_160">
<rect width="36" height="36" fill="white"/>
</clipPath>
</defs>
</svg>
