<svg width="39" height="39" viewBox="0 0 39 39" fill="none" xmlns="http://www.w3.org/2000/svg">
<path d="M35.5207 0H17.7249C15.8348 0 14.2972 1.53768 14.2972 3.42773V13.5949L11.7369 16.1551C11.6846 15.1693 11.1678 14.2235 10.2676 13.6642C8.80524 12.7559 6.87664 13.2066 5.96852 14.6687L2.92728 19.5643C-0.0662746 23.6981 0.0472213 29.1419 0.0535436 29.3723C0.0615417 29.6643 0.181208 29.9422 0.387786 30.1488L8.89085 38.6518C9.10733 38.8683 9.39884 38.9865 9.69873 38.9865C9.77567 38.9865 9.85306 38.9787 9.92999 38.9628L15.1888 37.8759C15.8163 38.5661 16.7209 38.9999 17.7249 38.9999H35.5208C37.4108 38.9999 38.9485 37.4622 38.9485 35.5722V3.42773C38.9484 1.53768 37.4108 0 35.5207 0ZM4.84635 20.8054L7.90953 15.8746C8.15282 15.4827 8.66973 15.362 9.06171 15.6054C9.45361 15.8489 9.57434 16.3658 9.33097 16.7577L6.50264 21.3106C6.25028 21.7168 6.27762 22.2372 6.57104 22.6147L6.62398 22.6829C6.82515 22.9417 7.1277 23.1016 7.45486 23.122C7.78118 23.1425 8.10217 23.0214 8.33396 22.7896L20.3491 10.7745C20.6753 10.4483 21.206 10.4483 21.5323 10.7745C21.8585 11.1008 21.8585 11.6316 21.5323 11.9578L16.3697 17.1205L14.4432 19.047C13.997 19.4932 13.997 20.2166 14.4432 20.6628C14.6663 20.8859 14.9587 20.9975 15.2511 20.9975C15.5434 20.9975 15.8359 20.8859 16.0589 20.6628L17.9855 18.7362C18.3116 18.4101 18.8425 18.41 19.1688 18.7362C19.495 19.0625 19.495 19.5933 19.1688 19.9196L18.5696 20.5187C18.5696 20.5189 18.5694 20.519 18.5693 20.5191L17.1561 21.9322C16.7099 22.3784 16.7099 23.1018 17.1561 23.548C17.3792 23.7711 17.6716 23.8827 17.964 23.8827C18.2563 23.8827 18.5488 23.7711 18.7719 23.5481L20.185 22.135C20.1851 22.1349 20.1851 22.1349 20.1852 22.1348C20.5115 21.8088 21.0421 21.8089 21.3683 22.1349C21.5262 22.293 21.6133 22.5031 21.6133 22.7266C21.6133 22.9501 21.5262 23.1602 21.3683 23.3182L20.6553 24.0312L19.4273 25.2593C18.981 25.7055 18.981 26.4289 19.4273 26.8751C19.6504 27.0982 19.9428 27.2097 20.2351 27.2097C20.5275 27.2097 20.82 27.0982 21.043 26.875L22.2707 25.6474C22.2707 25.6472 22.2709 25.6471 22.2711 25.647C22.5973 25.3208 23.1281 25.3208 23.4544 25.647C23.6124 25.8051 23.6994 26.0151 23.6994 26.2386C23.6994 26.4621 23.6124 26.6723 23.4544 26.8303L23.4545 26.8302L14.6229 35.6595L10.0709 36.6003L2.34266 28.8721C2.38235 27.5939 2.68345 23.7745 4.79875 20.8761C4.81551 20.8531 4.83143 20.8296 4.84635 20.8054ZM17.7249 2.28516H35.5208C36.1508 2.28516 36.6633 2.79772 36.6633 3.42773V28.8355H24.6811L25.0704 28.4462L25.0705 28.4462C25.6602 27.8565 25.9849 27.0726 25.9849 26.2387C25.9849 25.4048 25.6602 24.6209 25.0705 24.0312C24.722 23.6826 24.3055 23.4267 23.8509 23.2756C23.8544 23.2553 23.8571 23.2349 23.8603 23.2145H32.1791C33.8298 23.2145 35.1727 21.8717 35.1727 20.221C35.1727 18.5704 33.8298 17.2275 32.1791 17.2275H30.0273C29.3962 17.2275 28.8847 17.7391 28.8847 18.3701C28.8847 19.0011 29.3962 19.5126 30.0273 19.5126H32.1791C32.5697 19.5126 32.8875 19.8304 32.8875 20.221C32.8875 20.6116 32.5697 20.9294 32.1791 20.9294H23.3293C23.2269 20.7846 23.1123 20.6471 22.9844 20.5192C22.6054 20.1401 22.1521 19.8791 21.6712 19.7361C21.7927 18.8068 21.4973 17.8329 20.7849 17.1205C20.58 16.9156 20.3535 16.7452 20.1127 16.6094L23.1484 13.5737C24.3656 12.3565 24.3656 10.376 23.1484 9.15875C21.9313 7.94145 19.9506 7.94153 18.7335 9.15875L16.5824 11.3098V3.42773C16.5823 2.79772 17.0948 2.28516 17.7249 2.28516ZM17.0341 36.4802L22.3953 31.1206H36.6633V35.5723C36.6633 36.2023 36.1507 36.7148 35.5207 36.7148H17.7249C17.4651 36.7148 17.2262 36.6268 17.0341 36.4802Z" fill="white"/>
<path d="M27.8524 32.5249H25.3933C24.7623 32.5249 24.2507 33.0365 24.2507 33.6675C24.2507 34.2985 24.7623 34.8101 25.3933 34.8101H27.8524C28.4834 34.8101 28.9949 34.2985 28.9949 33.6675C28.9949 33.0365 28.4834 32.5249 27.8524 32.5249Z" fill="white"/>
<path d="M25.569 10.9621L28.9774 16.1505C29.1886 16.4721 29.5475 16.6657 29.9323 16.6657C30.3172 16.6657 30.6761 16.4721 30.8873 16.1505L34.2957 10.9621C34.3194 10.9261 34.341 10.8887 34.3604 10.8503C35.1408 9.30648 35.0656 7.50509 34.1593 6.03154C33.2502 4.55343 31.6701 3.6709 29.9323 3.6709C28.1946 3.6709 26.6145 4.55335 25.7053 6.03154C24.7991 7.50509 24.7239 9.30655 25.5042 10.8503C25.5237 10.8887 25.5454 10.9261 25.569 10.9621ZM29.9323 5.95606C30.8702 5.95606 31.7228 6.43183 32.2128 7.22866C32.6898 8.00417 32.7386 8.94839 32.3471 9.76633L29.9323 13.4422L27.5175 9.76633C27.126 8.94839 27.1749 8.00409 27.6519 7.22866C28.1419 6.43175 28.9945 5.95606 29.9323 5.95606Z" fill="white"/>
</svg>
