<svg width="44" height="44" viewBox="0 0 44 44" fill="none" xmlns="http://www.w3.org/2000/svg">
<g clip-path="url(#clip0_8756_181)">
<path d="M29.04 21.1406C29.5147 21.1406 29.8994 20.7559 29.8994 20.2812C29.8994 19.8066 29.5147 19.4219 29.04 19.4219C28.5654 19.4219 28.1807 19.8066 28.1807 20.2812C28.1807 20.7559 28.5654 21.1406 29.04 21.1406Z" fill="white"/>
<path d="M29.1875 23.9635C28.7184 23.8938 28.2811 24.2182 28.2116 24.6877C27.9767 26.2737 26.6361 27.5891 24.6255 28.2064C22.4764 28.8663 19.4934 28.6451 17.6737 26.6635C17.3527 26.3139 16.809 26.2909 16.4595 26.6118C16.1099 26.9328 16.0868 27.4765 16.4078 27.826C17.4612 28.9732 18.892 29.755 20.5454 30.087C21.1293 30.2042 21.735 30.2624 22.3446 30.2624C23.2863 30.2624 24.2373 30.1236 25.13 29.8495C27.7898 29.0328 29.5774 27.1974 29.9117 24.9395C29.9813 24.47 29.657 24.033 29.1875 23.9635Z" fill="white"/>
<path d="M41.132 16.3634C39.57 14.5527 37.4141 13.3786 34.8192 12.907C37.3036 11.2304 39.4466 9.56184 40.9745 8.10588C43.3042 5.88603 44.0854 4.32609 43.4331 3.19696C42.7073 1.93935 40.6121 1.94803 36.8389 3.22455C33.6509 4.30306 29.6793 6.17624 25.6561 8.49913C24.9611 8.90029 24.2727 9.31107 23.5991 9.72503C23.0995 8.3142 23.429 6.70261 24.5313 5.30518C25.3569 4.25846 25.5412 2.92901 25.0124 1.83545C24.4581 0.689305 23.2416 0.00309375 21.7562 0H21.7158C16.4731 0 11.3451 2.0686 7.27655 5.82476C3.20294 9.58556 0.709033 14.5641 0.254251 19.8431C-0.292913 26.2008 1.73934 32.2451 5.97649 36.8626C10.1388 41.3986 16.0397 44 22.1661 44C25.4644 44 28.5607 43.3965 31.3689 42.2062C33.9367 41.1178 36.2169 39.5637 38.1464 37.5869C39.9354 35.754 41.3459 33.6439 42.3387 31.3153C43.2835 29.0995 43.7996 26.7513 43.8316 24.5248C43.8781 21.2868 42.9446 18.4647 41.132 16.3634ZM23.6995 11.6865C24.6091 11.1128 25.5564 10.5413 26.5154 9.98766C30.2353 7.83991 33.9395 6.07088 36.9459 5.00637C40.2553 3.83462 41.6103 3.9111 41.9262 4.06235C41.8989 4.26233 41.6505 5.15204 39.4788 7.15198C37.6653 8.822 35.0172 10.7859 32.0222 12.682C31.0754 13.2816 30.09 13.8774 29.0936 14.4529C27.7199 15.2457 26.3472 15.9871 25 16.6659C24.7311 15.8814 24.3866 15.1201 23.9673 14.3938C23.5609 13.6898 23.0896 13.029 22.5627 12.4175C22.9356 12.1731 23.315 11.9287 23.6995 11.6865ZM23.4429 17.4283C21.0163 18.5791 18.7897 19.4564 17.0115 19.9653C16.919 19.5208 16.7562 19.0911 16.5253 18.6908C16.3064 18.3114 16.0319 17.9722 15.7145 17.6797C17.0457 16.395 18.9193 14.9065 21.1255 13.3838C21.6377 13.9563 22.0917 14.5824 22.4789 15.253C22.8793 15.9465 23.2015 16.6759 23.4429 17.4283ZM42.113 24.5001C41.9905 33.0516 34.3294 42.2812 22.1661 42.2812C16.5198 42.2812 11.0806 39.8827 7.24295 35.7007C3.33511 31.4421 1.46142 25.8628 1.96673 19.9906C2.83461 9.91547 11.694 1.71875 21.7158 1.71875H21.7544C22.5765 1.72047 23.2001 2.03569 23.465 2.58371C23.7087 3.08748 23.6028 3.70691 23.1817 4.24076C21.6328 6.20443 21.2444 8.61953 22.1195 10.6558C21.6588 10.9526 21.206 11.2508 20.7685 11.5465C20.7664 11.5479 20.7644 11.5492 20.7624 11.5506C18.0297 13.3946 15.7221 15.2287 14.1867 16.7722C13.0222 16.3743 11.7428 16.4903 10.6554 17.118C8.86992 18.1493 6.52554 22.9554 6.07377 23.9083C5.95277 24.1634 5.96488 24.4617 6.10599 24.7062C6.24719 24.9507 6.49942 25.1103 6.78078 25.1331C7.25575 25.1716 8.60454 25.2689 10.1058 25.2689C11.9275 25.2689 13.9735 25.1255 14.9523 24.5602C16.0126 23.9481 16.7475 22.9255 17.0021 21.7498C19.1095 21.1967 21.8631 20.1144 24.8453 18.6615C26.5162 17.8483 28.2346 16.9331 29.953 15.9414C30.8246 15.438 31.6864 14.919 32.524 14.3956C32.529 14.3958 32.5339 14.3966 32.539 14.3968C39.7018 14.6022 42.1812 19.7505 42.113 24.5001ZM15.3779 21.0005C15.3229 21.8648 14.8427 22.6389 14.0929 23.0717C13.2802 23.5412 10.4883 23.6045 8.19591 23.4996C9.25079 21.4625 10.7013 19.0764 11.5149 18.6065C12.283 18.1631 13.2117 18.1436 13.9995 18.5547C14.4326 18.7802 14.7911 19.1242 15.0365 19.5497C15.2919 19.9922 15.4098 20.4939 15.3779 21.0005Z" fill="white"/>
<path d="M15.2902 5.31445C13.3947 5.31445 11.8527 6.85652 11.8527 8.75195C11.8527 10.6474 13.3947 12.1895 15.2902 12.1895C17.1856 12.1895 18.7277 10.6474 18.7277 8.75195C18.7277 6.85652 17.1856 5.31445 15.2902 5.31445ZM15.2902 10.4707C14.3424 10.4707 13.5714 9.69967 13.5714 8.75195C13.5714 7.80423 14.3424 7.0332 15.2902 7.0332C16.2379 7.0332 17.0089 7.80423 17.0089 8.75195C17.0089 9.69967 16.2379 10.4707 15.2902 10.4707Z" fill="white"/>
<path d="M10.9933 28.4067C9.09785 28.4067 7.55579 29.9488 7.55579 31.8442C7.55579 33.7397 9.09785 35.2817 10.9933 35.2817C12.8887 35.2817 14.4308 33.7397 14.4308 31.8442C14.4308 29.9488 12.8887 28.4067 10.9933 28.4067ZM10.9933 33.563C10.0456 33.563 9.27454 32.792 9.27454 31.8442C9.27454 30.8965 10.0456 30.1255 10.9933 30.1255C11.941 30.1255 12.712 30.8965 12.712 31.8442C12.712 32.792 11.941 33.563 10.9933 33.563Z" fill="white"/>
<path d="M19.587 33.563C17.6916 33.563 16.1495 35.1051 16.1495 37.0005C16.1495 38.8959 17.6916 40.438 19.587 40.438C21.4825 40.438 23.0245 38.8959 23.0245 37.0005C23.0245 35.1051 21.4825 33.563 19.587 33.563ZM19.587 38.7192C18.6393 38.7192 17.8683 37.9482 17.8683 37.0005C17.8683 36.0528 18.6393 35.2817 19.587 35.2817C20.5348 35.2817 21.3058 36.0528 21.3058 37.0005C21.3058 37.9482 20.5348 38.7192 19.587 38.7192Z" fill="white"/>
<path d="M29.8995 31.8442C28.0041 31.8442 26.462 33.3863 26.462 35.2817C26.462 37.1772 28.0041 38.7192 29.8995 38.7192C31.795 38.7192 33.337 37.1772 33.337 35.2817C33.337 33.3863 31.795 31.8442 29.8995 31.8442ZM29.8995 37.0005C28.9518 37.0005 28.1808 36.2295 28.1808 35.2817C28.1808 34.334 28.9518 33.563 29.8995 33.563C30.8473 33.563 31.6183 34.334 31.6183 35.2817C31.6183 36.2295 30.8473 37.0005 29.8995 37.0005Z" fill="white"/>
<path d="M36.7745 23.2505C34.8791 23.2505 33.337 24.7926 33.337 26.688C33.337 28.5834 34.8791 30.1255 36.7745 30.1255C38.67 30.1255 40.212 28.5834 40.212 26.688C40.212 24.7926 38.67 23.2505 36.7745 23.2505ZM36.7745 28.4067C35.8268 28.4067 35.0558 27.6357 35.0558 26.688C35.0558 25.7403 35.8268 24.9692 36.7745 24.9692C37.7223 24.9692 38.4933 25.7403 38.4933 26.688C38.4933 27.6357 37.7223 28.4067 36.7745 28.4067Z" fill="white"/>
</g>
<defs>
<clipPath id="clip0_8756_181">
<rect width="44" height="44" fill="white"/>
</clipPath>
</defs>
</svg>
