<svg width="24" height="24" viewBox="0 0 24 24" fill="none" xmlns="http://www.w3.org/2000/svg">
<path d="M12 0C5.37877 0 0 5.37877 0 12C0 18.6212 5.37877 24 12 24C18.6212 24 24 18.6212 24 12C24 5.37877 18.6212 0 12 0ZM12 1.04348C18.0573 1.04348 22.9565 5.9427 22.9565 12C22.9565 18.0573 18.0573 22.9565 12 22.9565C5.9427 22.9565 1.04348 18.0573 1.04348 12C1.04348 5.9427 5.9427 1.04348 12 1.04348ZM6.78363 8.34783L4.67833 8.34884C4.67833 8.34884 4.55786 8.34206 4.41236 8.36107C4.26686 8.38009 4.05192 8.38892 3.83152 8.63825L3.8305 8.63926L3.82948 8.64028C3.63343 8.86448 3.64091 9.12543 3.66542 9.26902C3.68984 9.41208 3.7449 9.5197 3.7449 9.5197V9.52072C3.76515 9.57038 5.29376 13.3158 7.22079 15.3281C8.58005 16.7485 10.0338 17.2174 11.3285 17.2174H12C12.2209 17.2174 12.4183 17.2073 12.6369 17.0941C12.8555 16.9808 13.0435 16.6683 13.0435 16.4256C13.0435 16.1641 13.0499 15.9106 13.0832 15.7694C13.1143 15.6374 13.1023 15.6698 13.1148 15.6695C13.1273 15.6722 13.1501 15.6775 13.1933 15.697C13.2863 15.7391 13.4302 15.833 13.5897 15.9569C13.9082 16.2041 14.2855 16.5629 14.7086 16.8403C15.3145 17.242 15.9722 17.2174 15.9722 17.2174H18.1406L18.1641 17.2153C18.1641 17.2153 18.4968 17.2078 18.8387 16.9983C19.0096 16.8935 19.2127 16.7014 19.2809 16.4134C19.3491 16.1253 19.262 15.8232 19.0944 15.5574C19.0332 15.4599 18.736 15.0291 17.5496 13.9759C17.2431 13.704 17.0341 13.5116 16.9514 13.4093C16.9221 13.373 16.9196 13.3765 16.9137 13.3747C16.9206 13.3568 16.9892 13.2125 17.1726 12.9742C17.3637 12.7258 17.6541 12.3798 18.0275 11.9042C18.5035 11.2978 18.8374 10.7148 19.0476 10.2228C19.1526 9.97683 19.2271 9.75362 19.2717 9.55128C19.3164 9.34894 19.352 9.18076 19.286 8.94089C19.2368 8.76233 19.1032 8.60241 18.9722 8.51799C18.8411 8.43357 18.719 8.40178 18.6094 8.38144C18.3901 8.34077 18.1967 8.34782 18.0163 8.34782C17.6387 8.34782 15.9599 8.36106 15.8213 8.36106C15.6587 8.36106 15.3993 8.42879 15.2792 8.49761C14.9812 8.6683 14.8879 8.90216 14.8879 8.90216L14.8594 8.95209L14.8431 9.00814C14.8431 9.00814 14.4608 10.2448 14.0676 10.8821H14.0666C13.6042 11.633 13.2593 11.9308 13.1077 12.0153C13.0916 12.0243 13.1005 12.0195 13.0893 12.0255C13.0775 11.9909 13.0625 11.9434 13.0527 11.8553C13.0305 11.6569 13.0435 11.3775 13.0435 11.1073C13.0435 10.3589 13.0997 9.89226 13.0374 9.4504C13.0062 9.22947 12.9269 8.98343 12.7459 8.79415C12.565 8.60487 12.3312 8.5117 12.0978 8.45788H12.0968C11.8536 8.40186 11.5914 8.35375 10.9616 8.34782C10.1592 8.34034 9.63659 8.36522 9.17222 8.57201L9.16712 8.57506L9.16305 8.5771C8.97957 8.66329 8.83493 8.76208 8.70754 8.89402C8.64386 8.95999 8.56829 9.00803 8.51597 9.21807C8.4898 9.32309 8.48693 9.52178 8.60564 9.68274C8.72435 9.8437 8.89071 9.89225 8.9888 9.90489C8.97071 9.90254 9.06596 9.9235 9.13961 9.95992C9.21326 9.99633 9.2772 10.0488 9.29348 10.07V10.071C9.28667 10.0621 9.3574 10.2379 9.37602 10.3981C9.39465 10.5583 9.39131 10.6875 9.39131 10.6875L9.39029 10.7191L9.39335 10.7507C9.39335 10.7507 9.42538 11.1052 9.40864 11.4711C9.40026 11.6541 9.37713 11.8383 9.34648 11.9511C9.34485 11.9571 9.34411 11.955 9.3424 11.9603C9.21177 11.869 8.91056 11.5511 8.49559 10.8658C8.11199 10.2319 7.75273 9.09171 7.75273 9.09171L7.74458 9.06623L7.7354 9.04178C7.7354 9.04178 7.66842 8.78708 7.37263 8.57914C7.09539 8.38397 6.83153 8.357 6.83153 8.357L6.78363 8.34783ZM6.66236 9.3913C6.69221 9.40221 6.7546 9.4247 6.7663 9.43003L6.75407 9.39334L6.77038 9.43105L6.77242 9.43207V9.43309H6.77344C6.74721 9.41474 6.76944 9.43295 6.77242 9.43716C6.78683 9.48632 7.1054 10.5837 7.60292 11.4059C8.05615 12.1544 8.39098 12.5737 8.75646 12.8244C9.12158 13.0748 9.61254 13.049 9.86209 12.9192C10.1956 12.746 10.2888 12.4613 10.3533 12.2242C10.4177 11.9871 10.4407 11.7465 10.4511 11.519C10.471 11.0849 10.437 10.7298 10.4338 10.6946C10.4343 10.675 10.4389 10.5054 10.4124 10.2768C10.3856 10.0465 10.3376 9.76026 10.1332 9.47283C10.3621 9.4388 10.4893 9.38699 10.9514 9.3913C11.5408 9.39685 11.6305 9.42144 11.8624 9.47487C11.9888 9.504 12.0028 9.52814 11.9908 9.51563C11.9789 9.50312 11.9898 9.49476 12.0041 9.59613C12.0327 9.79883 12 10.3187 12 11.1073C12 11.3297 11.9785 11.6432 12.0153 11.9715C12.052 12.2996 12.1546 12.7194 12.5513 12.965C12.7773 13.1049 13.2092 13.153 13.6162 12.9263C14.0232 12.6996 14.4408 12.2646 14.9552 11.4294C15.4632 10.6058 15.7671 9.52308 15.7999 9.40863C15.7999 9.40863 15.8057 9.40486 15.8091 9.40252C15.8183 9.40296 15.8066 9.40456 15.8213 9.40456C16.0146 9.40456 17.6635 9.39131 18.0163 9.39131C18.1134 9.39131 18.156 9.39653 18.2283 9.39946C18.1991 9.51211 18.1598 9.64328 18.0876 9.81217C17.9181 10.2091 17.6271 10.724 17.2062 11.2602C16.8434 11.7222 16.5616 12.0573 16.3461 12.3373C16.1306 12.6173 15.9613 12.8382 15.8906 13.1576C15.8199 13.477 15.9548 13.8372 16.1393 14.0656C16.3237 14.2939 16.5519 14.4862 16.8567 14.7565C18.0045 15.7755 18.1929 16.084 18.2109 16.1128V16.1138C18.2303 16.1445 18.2178 16.1136 18.2252 16.1291C18.1601 16.1494 18.0826 16.1723 18.0754 16.1739H15.964H15.9609C15.9609 16.1739 15.5726 16.1612 15.2843 15.9701L15.2833 15.9691H15.2823C14.9773 15.7693 14.6087 15.4268 14.2296 15.1325C14.0401 14.9853 13.8471 14.8475 13.6233 14.7463C13.3995 14.6451 13.1158 14.5734 12.8173 14.6627C12.3851 14.7921 12.1453 15.2033 12.0683 15.5299C12.013 15.7643 12.0212 15.9682 12.0194 16.1729C12.0045 16.1737 12.0174 16.1739 12 16.1739H11.3285C10.268 16.1739 9.16482 15.8502 7.97487 14.6067C6.42783 12.9911 5.04755 9.86693 4.84036 9.39233L6.66236 9.3913ZM15.7632 9.39538C15.7538 9.39749 15.7809 9.39953 15.803 9.40149C15.8 9.40312 15.8032 9.40006 15.7989 9.40251C15.7985 9.39379 15.776 9.39254 15.7632 9.39538Z" fill="#909090"/>
</svg>
